<?xml version="1.0" encoding="iso-8859-1"?>
<!-- Generator: Adobe Illustrator 18.0.0, SVG Export Plug-In . SVG Version: 6.00 Build 0)  -->
<!DOCTYPE svg PUBLIC "-//W3C//DTD SVG 1.1//EN" "http://www.w3.org/Graphics/SVG/1.1/DTD/svg11.dtd">
<svg version="1.1" id="Capa_1" xmlns="http://www.w3.org/2000/svg" xmlns:xlink="http://www.w3.org/1999/xlink" x="0px" y="0px"
	 viewBox="0 0 405.279 405.279" style="enable-background:new 0 0 405.279 405.279;" xml:space="preserve">
<g>
	<path style="fill:#FBB03B;" d="M225.144,0h-45.009c-7.038,0-12.744,5.705-12.744,12.744v98.25h70.496v-98.25
		C237.888,5.705,232.182,0,225.144,0z"/>
	<rect x="153.141" y="86.993" style="fill:#6BC0DD;" width="99" height="73.5"/>
	<circle style="fill:#6BC0DD;" cx="202.639" cy="266.266" r="139.013"/>
	<path style="fill:#DB6B79;" d="M100.608,206.281c-10.364,17.591-16.316,38.091-16.316,59.985
		c0,65.361,52.986,118.347,118.348,118.347s118.348-52.986,118.348-118.347c0-21.894-5.952-42.395-16.316-59.985H100.608z"/>
	<rect x="153.141" y="86.993" style="fill:#509BAD;" width="99" height="24"/>
	<path style="fill:none;stroke:#FFFFFF;stroke-width:10;stroke-linecap:round;stroke-miterlimit:10;" d="M226.08,167.314
		c-7.525-1.776-15.373-2.715-23.44-2.715"/>
	<path style="fill:none;stroke:#FFFFFF;stroke-width:10;stroke-linecap:round;stroke-miterlimit:10;" d="M280.107,332.11
		c15.092-17.739,24.2-40.728,24.2-65.844c0-34.609-17.293-65.179-43.71-83.541"/>
	<path style="fill:#6BC0DD;" d="M264.136,50.997H141.142c-12.012,0-21.749,9.737-21.749,21.749v0
		c0,12.012,9.737,21.749,21.749,21.749h122.994c12.012,0,21.749-9.737,21.749-21.749v0
		C285.885,60.735,276.148,50.997,264.136,50.997z"/>
	
		<line style="fill:none;stroke:#FFFFFF;stroke-width:10;stroke-linecap:round;stroke-miterlimit:10;" x1="203.418" y1="62.997" x2="267.915" y2="62.997"/>
	
		<line style="fill:none;stroke:#FFFFFF;stroke-width:10;stroke-linecap:round;stroke-miterlimit:10;" x1="168.92" y1="62.997" x2="182.42" y2="62.997"/>
	<circle style="fill:#E88B9B;" cx="148.894" cy="309.512" r="26.249"/>
	<circle style="fill:#E88B9B;" cx="184.68" cy="353.201" r="12.739"/>
	
		<line style="fill:none;stroke:#FFFFFF;stroke-width:10;stroke-linecap:round;stroke-miterlimit:10;" x1="233.417" y1="109.495" x2="233.417" y2="128.994"/>
</g>
<g>
</g>
<g>
</g>
<g>
</g>
<g>
</g>
<g>
</g>
<g>
</g>
<g>
</g>
<g>
</g>
<g>
</g>
<g>
</g>
<g>
</g>
<g>
</g>
<g>
</g>
<g>
</g>
<g>
</g>
</svg>
